<svg xmlns="http://www.w3.org/2000/svg" viewBox="0 0 128 128" fill="none">
  <path d="M51 9h26l3.3 14.2a44.5 44.5 0 0 1 8.7 3.6l12.4-7.7 18.4 18.4-7.7 12.4a44.5 44.5 0 0 1 3.6 8.7L120 62v26l-14.2 3.3a44.5 44.5 0 0 1-3.6 8.7l7.7 12.4-18.4 18.4-12.4-7.7a44.5 44.5 0 0 1-8.7 3.6L77 120H51l-3.3-14.2a44.5 44.5 0 0 1-8.7-3.6l-12.4 7.7-18.4-18.4 7.7-12.4a44.5 44.5 0 0 1-3.6-8.7L8 77V51l14.2-3.3a44.5 44.5 0 0 1 3.6-8.7l-7.7-12.4L36.5 8.2l12.4 7.7a44.5 44.5 0 0 1 8.7-3.6L51 9Z" stroke="#1f2c39" stroke-width="9" stroke-linecap="round" stroke-linejoin="round" />
  <circle cx="64" cy="64" r="21" stroke="#1f2c39" stroke-width="9" />
</svg>